<svg id="Layer_1" data-name="Layer 1" xmlns="http://www.w3.org/2000/svg" viewBox="0 0 357.78 81.63"><defs><style>.cls-1{fill:#0054a6;}.cls-2{fill:#ffc20e;}</style></defs><title>Artboard 1</title><path class="cls-1" d="M102.55,29.44V55.65c0,3.16-2,5-5.39,5s-5.37-1.86-5.37-5V28.56c0-4.53,3.29-7.41,7.59-7.41h10.15c8.93,0,13.85,5.53,13.85,11.73,0,3.89-1.34,7-5.53,10.18l5.92,9.5a5,5,0,0,1,.86,2.67A5.34,5.34,0,0,1,119,60.75a5.28,5.28,0,0,1-4.81-2.85l-7.68-12.36a6.85,6.85,0,0,1-1.25-3.8c0-1.86,1-3.37,2.64-3.5l1.49-.11c1.94-.15,3.06-2,3.06-4.22a4.22,4.22,0,0,0-4.61-4.47Z"/><path class="cls-1" d="M163.91,53.13a6.19,6.19,0,0,1,.49,2.36,4.91,4.91,0,0,1-5.29,5.17c-2.72,0-4.32-1.31-5.2-4.13l-1.73-5.44H138.91l-1.7,5.44c-.89,2.83-2.49,4.13-5.2,4.13a4.94,4.94,0,0,1-5.27-5.17,6.16,6.16,0,0,1,.48-2.36L137.52,26c1.34-3.5,3.67-5.23,8.14-5.23s6.86,1.7,8.17,5.23Zm-22-11.7h7.14L145.5,30.17Z"/><path class="cls-1" d="M178.88,55.65c0,3.16-1.91,5-5.26,5s-5.25-1.86-5.25-5V25.76c0-3.15,1.91-5,5.25-5s5.26,1.86,5.26,5Z"/><path class="cls-1" d="M220.59,55.54a4.74,4.74,0,0,1-5.11,5.13,7.34,7.34,0,0,1-6.68-3.4L195.69,39.58V55.65c0,3.16-2,5-5.33,5s-5.32-1.86-5.32-5V25.89a4.75,4.75,0,0,1,5.12-5.13c2.67,0,4.3.91,6.19,3.46L210,42.63V25.76c0-3.15,2-5,5.31-5s5.32,1.86,5.32,5Z"/><path class="cls-1" d="M234.33,60.28c-4.32,0-7.59-2.88-7.59-7.41V28.56c0-4.53,3.28-7.41,7.59-7.41h11.05c8.39,0,12.82,4.77,12.82,9.87,0,2.85-.94,5.1-4.11,7.72,4.66,1.79,7,5.19,7,9.26,0,6.93-5.65,12.28-14.9,12.28Zm3.16-30.68V51.53h8.75c3.3,0,4.45-1.43,4.45-3.4s-1.67-3.32-4.48-3.32H244.3c-2.22,0-4.26-1.34-4.26-4.74,0-2.77,1.46-4.16,3.8-4.25l1.55-.07a2.46,2.46,0,0,0,2.38-2.67c0-2.18-1.55-3.49-4.32-3.49Z"/><path class="cls-1" d="M283.2,61.27c-13.3,0-19.37-9.82-19.37-20.68,0-12.14,7.77-20.23,19.38-20.23s19.38,8.08,19.38,20.23c0,10.81-6.08,20.68-19.38,20.68m0-31.68c-4.37,0-8.14,2.73-8.14,10.92,0,7.66,3.35,11.4,8.14,11.4,4.25,0,8.14-3.74,8.14-11.4S287.57,29.6,283.2,29.6"/><path class="cls-1" d="M338.22,26.1l4.27,18,4.65-19a5,5,0,0,1,5.34-4.29,5,5,0,0,1,5.29,5.32,8.07,8.07,0,0,1-.24,1.67L349.7,56.23c-.84,3.11-3.25,4.44-6.89,4.44-3,0-5.62-1.1-6.44-4.44l-5-20-4.82,20c-.79,3.35-3.46,4.44-6.44,4.44-3.66,0-6-1.34-6.9-4.44l-7.83-28.48a7.28,7.28,0,0,1-.24-1.67,5,5,0,0,1,5.29-5.32A5.06,5.06,0,0,1,315.74,25l4.65,19,4.27-18c.7-3,3.38-4.53,6.78-4.53s6.08,1.52,6.78,4.53"/><path class="cls-2" d="M67.31,56.13,59.53,44.77c6.68-6.93,9-11.75,9-19.22C68.53,10.62,57.58,0,41.06,0H16.28C6.78,0,0,6.89,0,16.73V67.21c0,8.1,6.38,14.43,15.89,14.43S31.64,75.14,31.64,67V59.31l9.5,14.47c3.19,4.81,7.94,7.86,13.67,7.86,9.51,0,16-6.65,16-16.06,0-2.57-1.21-6.1-3.54-9.45"/></svg>